<svg xmlns="http://www.w3.org/2000/svg" viewBox="0 0 29.56 29.56"><title>icon-insta-feed</title><path d="M4,.22H26A3.71,3.71,0,0,1,29.78,4V26a3.71,3.71,0,0,1-3.8,3.8H4A3.71,3.71,0,0,1,.22,26V4A3.71,3.71,0,0,1,4,.22ZM21.75,3.51a1.33,1.33,0,0,0-1.33,1.33V8a1.34,1.34,0,0,0,1.33,1.33h3.34A1.34,1.34,0,0,0,26.42,8V4.84a1.33,1.33,0,0,0-1.33-1.33Zm4.69,9.21h-2.6a8.87,8.87,0,0,1,.38,2.54A9.06,9.06,0,0,1,15,24.16a9,9,0,0,1-9.19-8.9,8.53,8.53,0,0,1,.38-2.54H3.51V25.21a1.18,1.18,0,0,0,1.17,1.17H25.26a1.18,1.18,0,0,0,1.18-1.17V12.72ZM15,9.18a5.85,5.85,0,0,0-5.94,5.76A5.85,5.85,0,0,0,15,20.69,5.84,5.84,0,0,0,21,14.94,5.84,5.84,0,0,0,15,9.18Z" transform="translate(-0.22 -0.22)" style="fill:#fff"/></svg>