<?xml version="1.0" encoding="UTF-8"?>
<svg width="13px" height="22px" viewBox="0 0 13 22" version="1.1" xmlns="http://www.w3.org/2000/svg" xmlns:xlink="http://www.w3.org/1999/xlink">
    <!-- Generator: Sketch 51.1 (57501) - http://www.bohemiancoding.com/sketch -->
    <title>Shape</title>
    <desc>Created with Sketch.</desc>
    <defs></defs>
    <g id="HOMEPAGE" stroke="none" stroke-width="1" fill="none" fill-rule="evenodd">
        <g id="MENU-Open" transform="translate(-1169.000000, -702.000000)" fill="#FFFFFF" fill-rule="nonzero">
            <g id="Menu-expanded-2" transform="translate(1023.000000, 156.000000)">
                <g id="Social-Icons" transform="translate(21.000000, 541.000000)">
                    <g id="Group-14" transform="translate(116.000000, 0.000000)">
                        <path d="M20.6864444,5.33777778 L17.9164444,5.33333333 C14.8044444,5.33333333 12.7933333,7.39666667 12.7933333,10.5902222 L12.7933333,13.014 L10.0082222,13.014 C9.76755556,13.014 9.57266667,13.2091111 9.57266667,13.4497778 L9.57266667,16.9615556 C9.57266667,17.2022222 9.76777778,17.3971111 10.0082222,17.3971111 L12.7933333,17.3971111 L12.7933333,26.2584444 C12.7933333,26.4991111 12.9882222,26.694 13.2288889,26.694 L16.8626667,26.694 C17.1033333,26.694 17.2982222,26.4988889 17.2982222,26.2584444 L17.2982222,17.3971111 L20.5546667,17.3971111 C20.7953333,17.3971111 20.9902222,17.2022222 20.9902222,16.9615556 L20.9915556,13.4497778 C20.9915556,13.3342222 20.9455556,13.2235556 20.864,13.1417778 C20.7824444,13.06 20.6713333,13.014 20.5557778,13.014 L17.2982222,13.014 L17.2982222,10.9593333 C17.2982222,9.97177778 17.5335556,9.47044444 18.82,9.47044444 L20.686,9.46977778 C20.9264444,9.46977778 21.1213333,9.27466667 21.1213333,9.03422222 L21.1213333,5.77333333 C21.1213333,5.53311111 20.9266667,5.33822222 20.6864444,5.33777778 Z" id="Shape"></path>
                    </g>
                </g>
            </g>
        </g>
    </g>
</svg>