<?xml version="1.0" encoding="UTF-8"?>
<svg width="21px" height="17px" viewBox="0 0 21 17" version="1.1" xmlns="http://www.w3.org/2000/svg" xmlns:xlink="http://www.w3.org/1999/xlink">
    <!-- Generator: Sketch 51.1 (57501) - http://www.bohemiancoding.com/sketch -->
    <title>Shape</title>
    <desc>Created with Sketch.</desc>
    <defs></defs>
    <g id="HOMEPAGE" stroke="none" stroke-width="1" fill="none" fill-rule="evenodd">
        <g id="MENU-Open" transform="translate(-1088.000000, -705.000000)" fill="#FFFFFF" fill-rule="nonzero">
            <g id="Menu-expanded-2" transform="translate(1023.000000, 156.000000)">
                <g id="Social-Icons" transform="translate(21.000000, 541.000000)">
                    <g id="Group-16" transform="translate(38.000000, 0.000000)">
                        <path d="M26.6666667,10.5860108 C25.9305544,10.9117155 25.1407165,11.1326047 24.3108458,11.2312201 C25.1582001,10.7245357 25.8068287,9.92086312 26.1142475,8.9661675 C25.3194096,9.43538983 24.4420552,9.77610548 23.5072171,9.96080527 C22.7586211,9.16336553 21.6938154,8.66666667 20.5127677,8.66666667 C18.246947,8.66666667 16.4097872,10.5011664 16.4097872,12.7624662 C16.4097872,13.0831782 16.4460291,13.3964173 16.5160292,13.6959507 C13.1066772,13.5249566 10.0835023,11.8938877 8.060133,9.41541875 C7.70643961,10.0194458 7.50523013,10.723263 7.50523013,11.4745604 C7.50523013,12.8959983 8.23010059,14.1501948 9.32990631,14.8839685 C8.65751959,14.8615174 8.02513294,14.6768176 7.47150458,14.3698113 L7.47150458,14.420979 C7.47150458,16.4052292 8.88624546,18.0612619 10.7621309,18.4381669 C10.4184375,18.5305168 10.0560186,18.5816846 9.68108336,18.5816846 C9.41614828,18.5816846 9.15993871,18.5554807 8.90872915,18.505553 C9.43111563,20.1341418 10.9458567,21.3184395 12.7405328,21.3509088 C11.3370338,22.4491221 9.56735768,23.1018042 7.64523036,23.1018042 C7.31405335,23.1018042 6.98784366,23.0818331 6.66666667,23.0456437 C8.48258467,24.2100029 10.6384379,24.8888889 12.9555005,24.8888889 C20.5028331,24.8888889 24.62833,18.6465905 24.62833,13.2329612 L24.6145718,12.7025856 C25.4206516,12.1284825 26.1180056,11.4071744 26.6666667,10.5860108 Z" id="Shape"></path>
                    </g>
                </g>
            </g>
        </g>
    </g>
</svg>