<?xml version="1.0" encoding="UTF-8"?>
<svg width="32px" height="40px" viewBox="0 0 32 40" version="1.1" xmlns="http://www.w3.org/2000/svg" xmlns:xlink="http://www.w3.org/1999/xlink">
    <!-- Generator: Sketch 51.1 (57501) - http://www.bohemiancoding.com/sketch -->
    <title>Shape</title>
    <desc>Created with Sketch.</desc>
    <defs></defs>
    <g id="HOMEPAGE" stroke="none" stroke-width="1" fill="none" fill-rule="evenodd">
        <g transform="translate(-401.000000, -6443.000000)" fill="#EC6767" fill-rule="nonzero" id="Footer">
            <g transform="translate(2.000000, 6088.000000)">
                <path d="M429.986915,366.369134 C428.922016,358.683753 421.243185,354.770584 413.050181,355.686852 C406.572768,356.411152 400.114835,361.634441 399.846766,369.103468 C399.683472,373.663142 400.979965,377.082918 405.329905,378.045479 C407.21368,374.720529 404.723144,373.99375 404.333226,371.585068 C402.737,361.741339 415.718601,355.01844 422.517713,361.896929 C427.225906,366.660805 424.123638,381.307267 416.539882,379.783351 C409.275338,378.329874 420.097801,366.670559 414.300339,364.383406 C409.587256,362.521607 407.084535,370.070906 409.319188,373.823689 C408.008105,380.276825 405.186171,386.353139 406.32907,394.444444 C410.033208,391.761121 411.283366,386.630258 412.306901,381.275765 C414.16871,382.405989 415.165469,383.575071 417.539046,383.757365 C426.292556,384.435372 431.188333,375.041302 429.986915,366.369134 Z" id="Shape"></path>
            </g>
        </g>
    </g>
</svg>