<?xml version="1.0" encoding="utf-8"?>
<!-- Generator: Adobe Illustrator 22.1.0, SVG Export Plug-In . SVG Version: 6.00 Build 0)  -->
<svg version="1.1" id="Layer_1" xmlns="http://www.w3.org/2000/svg" xmlns:xlink="http://www.w3.org/1999/xlink" x="0px" y="0px"
	 viewBox="0 0 56 56" style="enable-background:new 0 0 56 56;" xml:space="preserve">
<style type="text/css">
	.st0{fill:#347C67;}
	.st1{fill:#FFFFFF;stroke:#FFFFFF;stroke-width:2;stroke-linecap:round;stroke-linejoin:round;}
	.st2{fill:none;stroke:#FFFFFF;stroke-width:2;stroke-linecap:round;stroke-linejoin:round;}
</style>
<title>Group 10 Copy 12</title>
<desc>Created with Sketch.</desc>
<g id="__MAIN__">
	<g id="MAP-" transform="translate(-231.000000, -758.000000)">
		<g id="Project---Drawing-1" transform="translate(0.000000, -20.000000)">
			<g id="Group-10-Copy-12" transform="translate(231.000000, 778.000000)">
				<circle id="Oval-4" class="st0" cx="28" cy="28" r="28"/>
				<g id="Group-41" transform="translate(6.222222, 8.296296)">
					<path id="Stroke-3" class="st1" d="M18.1,19.9c0-1.8,1.4-3.3,3.2-3.3c1.8,0,3.2,1.5,3.2,3.3c0,1.8-1.4,3.3-3.2,3.3
						C19.5,23.2,18.1,21.7,18.1,19.9z"/>
					<path id="Stroke-5" class="st2" d="M23.3,16.7l3.8-10.5c0,0,1.4-4.4-3.3-5h-4.5"/>
					<path id="Stroke-7" class="st2" d="M19.2,1.2c-4.8,0.6-3.4,5-3.4,5l3.8,10.5"/>
					<path id="Stroke-9" class="st2" d="M23.3,22.8l3.8,10.5c0,0,1.4,4.4-3.3,5h-4.5"/>
					<path id="Stroke-11" class="st2" d="M19.2,38.2c-4.8-0.6-3.4-5-3.4-5l3.8-10.5"/>
					<path id="Stroke-13" class="st2" d="M18.1,19.9L6.9,21.6c0,0-4.6,0.8-2.9,5.3l2.1,4"/>
					<path id="Stroke-15" class="st2" d="M6,30.6c2.7,4,6,0.6,6,0.6l7.7-8.4"/>
					<path id="Stroke-17" class="st2" d="M7.3,32.1c-0.6,1.2-1,2.9,1.2,4.6l3.7,2.2c2.6,1.2,4-0.1,4.7-1.2"/>
					<path id="Stroke-19" class="st2" d="M3.2,14.2c-1.2,0-2.8,0.7-3.1,3.4l0,4.4c0.3,2.9,2,3.5,3.2,3.5"/>
					<path id="Stroke-21" class="st2" d="M39.4,14.2c1.2,0,2.8,0.7,3.1,3.4l0,4.4c-0.3,2.9-2,3.5-3.2,3.5"/>
					<path id="Stroke-23" class="st2" d="M35.2,32.1c0.6,1.2,1,2.9-1.2,4.6l-3.7,2.2c-2.6,1.2-4-0.1-4.7-1.2"/>
					<path id="Stroke-25" class="st2" d="M7.3,7.3c-0.6-1.2-1-2.9,1.2-4.6l3.7-2.2c2.6-1.2,4,0.1,4.7,1.2"/>
					<path id="Stroke-27" class="st2" d="M35.2,7.3c0.6-1.2,1-2.9-1.2-4.6l-3.7-2.2c-2.6-1.2-4,0.1-4.7,1.2"/>
					<path id="Stroke-29" class="st2" d="M18.1,20.3L6.9,18.6c0,0-4.6-0.8-2.9-5.3l2.1-4"/>
					<path id="Stroke-31" class="st2" d="M6,8.8c2.7-4,6-0.6,6-0.6l7.7,8.4"/>
					<path id="Stroke-33" class="st2" d="M24.9,19.9L36,21.6c0,0,4.6,0.8,2.9,5.3l-2.1,4"/>
					<path id="Stroke-35" class="st2" d="M36.9,30.6c-2.7,4-6,0.6-6,0.6l-7.7-8.4"/>
					<path id="Stroke-37" class="st2" d="M24.9,20.3L36,18.6c0,0,4.6-0.8,2.9-5.3l-2.1-4"/>
					<path id="Stroke-39" class="st2" d="M36.9,8.8c-2.7-4-6-0.6-6-0.6l-7.7,8.4"/>
				</g>
			</g>
		</g>
	</g>
</g>
</svg>
