<?xml version="1.0" encoding="UTF-8"?>
<svg width="36px" height="29px" viewBox="0 0 36 29" version="1.1" xmlns="http://www.w3.org/2000/svg" xmlns:xlink="http://www.w3.org/1999/xlink">
    <!-- Generator: Sketch 51.1 (57501) - http://www.bohemiancoding.com/sketch -->
    <title>Shape</title>
    <desc>Created with Sketch.</desc>
    <defs></defs>
    <g id="HOMEPAGE" stroke="none" stroke-width="1" fill="none" fill-rule="evenodd">
        <g transform="translate(-332.000000, -6450.000000)" fill="#347C67" fill-rule="nonzero" id="Footer">
            <g transform="translate(37.000000, 6088.000000)">
                <path d="M330.666667,365.525519 C329.37847,366.095502 327.996254,366.482058 326.54398,366.654635 C328.02685,365.767937 329.16195,364.36151 329.699933,362.690793 C328.308967,363.511932 326.773597,364.108185 325.13763,364.431409 C323.827587,363.03589 321.964177,362.166667 319.897344,362.166667 C315.932157,362.166667 312.717128,365.377041 312.717128,369.334316 C312.717128,369.895562 312.780551,370.44373 312.903051,370.967914 C306.936685,370.668674 301.646129,367.814303 298.105233,363.476983 C297.486269,364.53403 297.134153,365.76571 297.134153,367.080481 C297.134153,369.567997 298.402676,371.762841 300.327336,373.046945 C299.150659,373.007655 298.043983,372.684431 297.075133,372.14717 L297.075133,372.236713 C297.075133,375.709151 299.55093,378.607208 302.833729,379.266792 C302.232266,379.428404 301.598033,379.517948 300.941896,379.517948 C300.478259,379.517948 300.029893,379.472091 299.590276,379.384718 C300.504452,382.234748 303.155249,384.307269 306.295932,384.36409 C303.839809,386.285964 300.742876,387.428157 297.379153,387.428157 C296.799593,387.428157 296.228726,387.393208 295.666667,387.329876 C298.844523,389.367505 302.617266,390.555556 306.672126,390.555556 C319.879958,390.555556 327.099578,379.631533 327.099578,370.157682 L327.075501,369.229525 C328.48614,368.224844 329.70651,366.962555 330.666667,365.525519 Z" id="Shape"></path>
            </g>
        </g>
    </g>
</svg>