<?xml version="1.0" encoding="UTF-8"?>
<svg width="32px" height="40px" viewBox="0 0 32 40" version="1.1" xmlns="http://www.w3.org/2000/svg" xmlns:xlink="http://www.w3.org/1999/xlink">
    <!-- Generator: Sketch 51.1 (57501) - http://www.bohemiancoding.com/sketch -->
    <title>Shape</title>
    <desc>Created with Sketch.</desc>
    <defs></defs>
    <g id="HOMEPAGE" stroke="none" stroke-width="1" fill="none" fill-rule="evenodd">
        <g transform="translate(-401.000000, -6443.000000)" fill="#347C67" fill-rule="nonzero" id="Footer">
            <g transform="translate(37.000000, 6088.000000)">
                <path d="M394.986915,366.369134 C393.922016,358.683753 386.243185,354.770584 378.050181,355.686852 C371.572768,356.411152 365.114835,361.634441 364.846766,369.103468 C364.683472,373.663142 365.979965,377.082918 370.329905,378.045479 C372.21368,374.720529 369.723144,373.99375 369.333226,371.585068 C367.737,361.741339 380.718601,355.01844 387.517713,361.896929 C392.225906,366.660805 389.123638,381.307267 381.539882,379.783351 C374.275338,378.329874 385.097801,366.670559 379.300339,364.383406 C374.587256,362.521607 372.084535,370.070906 374.319188,373.823689 C373.008105,380.276825 370.186171,386.353139 371.32907,394.444444 C375.033208,391.761121 376.283366,386.630258 377.306901,381.275765 C379.16871,382.405989 380.165469,383.575071 382.539046,383.757365 C391.292556,384.435372 396.188333,375.041302 394.986915,366.369134 Z" id="Shape"></path>
            </g>
        </g>
    </g>
</svg>