<?xml version="1.0" encoding="utf-8"?>
<!-- Generator: Adobe Illustrator 22.1.0, SVG Export Plug-In . SVG Version: 6.00 Build 0)  -->
<svg version="1.1" id="Layer_1" xmlns="http://www.w3.org/2000/svg" xmlns:xlink="http://www.w3.org/1999/xlink" x="0px" y="0px"
	 viewBox="0 0 30 30" style="enable-background:new 0 0 30 30;" xml:space="preserve">
<style type="text/css">
	.st0{fill:#347C67;}
</style>
<title>Shape</title>
<desc>Created with Sketch.</desc>
<g id="HOMEPAGE">
	<g id="Footer" transform="translate(-266.000000, -6448.000000)">
		<g transform="translate(37.000000, 6088.000000)">
			<path id="Shape" class="st0" d="M233,360.2h22c2.1,0,3.8,1.5,3.8,3.8v22c0,2.2-1.7,3.8-3.8,3.8h-22c-2.1,0-3.8-1.5-3.8-3.8v-22
				C229.2,361.8,230.9,360.2,233,360.2z M250.8,363.5c-0.7,0-1.3,0.6-1.3,1.3v3.2c0,0.7,0.6,1.3,1.3,1.3h3.3c0.7,0,1.3-0.6,1.3-1.3
				v-3.2c0-0.7-0.6-1.3-1.3-1.3H250.8z M255.4,372.7h-2.6c0.2,0.8,0.4,1.7,0.4,2.5c0,4.9-4.1,8.9-9.2,8.9c-5.1,0-9.2-4-9.2-8.9
				c0-0.9,0.1-1.7,0.4-2.5h-2.7v12.5c0,0.6,0.5,1.2,1.2,1.2h20.6c0.6,0,1.2-0.5,1.2-1.2L255.4,372.7L255.4,372.7z M244,369.2
				c-3.3,0-5.9,2.6-5.9,5.8s2.7,5.8,5.9,5.8c3.3,0,5.9-2.6,5.9-5.8S247.3,369.2,244,369.2z"/>
		</g>
	</g>
</g>
</svg>
