<?xml version="1.0" encoding="UTF-8"?>
<svg width="18px" height="24px" viewBox="0 0 18 24" version="1.1" xmlns="http://www.w3.org/2000/svg" xmlns:xlink="http://www.w3.org/1999/xlink">
    <!-- Generator: Sketch 51.1 (57501) - http://www.bohemiancoding.com/sketch -->
    <title>Shape</title>
    <desc>Created with Sketch.</desc>
    <defs></defs>
    <g id="HOMEPAGE" stroke="none" stroke-width="1" fill="none" fill-rule="evenodd">
        <g id="MENU-Open" transform="translate(-1129.000000, -701.000000)" fill="#FFFFFF" fill-rule="nonzero">
            <g id="Menu-expanded-2" transform="translate(1023.000000, 156.000000)">
                <g id="Social-Icons" transform="translate(21.000000, 541.000000)">
                    <g id="Group-15" transform="translate(78.000000, 0.000000)">
                        <path d="M24.5639515,11.0680767 C23.9554379,6.67643046 19.5675342,4.44033359 14.885818,4.96391552 C11.184439,5.37780109 7.4941913,8.36253787 7.34100931,12.6305529 C7.24769839,15.2360812 7.98855137,17.1902388 10.4742315,17.7402739 C11.550674,15.840302 10.1275107,15.4250001 9.90470052,14.0486102 C8.99257138,8.42362243 16.4106293,4.5819657 20.2958358,8.51253085 C22.986232,11.2347457 21.2135077,19.6041525 16.8799323,18.7333434 C12.7287645,17.9027853 18.9130293,11.2403196 15.6001939,9.93337502 C12.9070034,8.86948945 11.4768773,13.183375 12.7538214,15.3278222 C12.0046314,19.0153284 10.3920978,22.4875081 11.0451826,27.1111111 C13.1618334,25.5777836 13.8762094,22.6458619 14.4610861,19.5861515 C15.5249771,20.2319939 16.094554,20.9000406 17.4508834,21.0042087 C22.4528893,21.3916411 25.2504762,16.0236014 24.5639515,11.0680767 Z" id="Shape"></path>
                    </g>
                </g>
            </g>
        </g>
    </g>
</svg>