<?xml version="1.0" encoding="UTF-8"?>
<svg width="31px" height="20px" viewBox="0 0 31 20" version="1.1" xmlns="http://www.w3.org/2000/svg" xmlns:xlink="http://www.w3.org/1999/xlink">
    <!-- Generator: Sketch 51.1 (57501) - http://www.bohemiancoding.com/sketch -->
    <title>Page 1</title>
    <desc>Created with Sketch.</desc>
    <defs></defs>
    <g id="HOMEPAGE" stroke="none" stroke-width="1" fill="none" fill-rule="evenodd">
        <g id="MENU-Open-Expanded" transform="translate(-869.000000, -48.000000)" stroke="#FFFFFF">
            <g id="Group" transform="translate(756.000000, 40.000000)">
                <g id="TOGGLE" transform="translate(0.000000, 6.000000)">
                    <path d="M136.050018,8.10398724 C134.566348,4.99097029 131.452402,3 127.996129,3 C123.38839,3 119.599163,6.47577001 119.11323,11.0191492 C119.061967,11.0176731 119.01217,11.0132486 118.959441,11.0132486 C116.224943,11.0132486 114,13.2532648 114,16.0066243 C114,18.7598328 116.224793,21 118.959441,21 L136.585009,21 C140.122121,21 142.999999,18.1022792 142.999999,14.5411156 C143.001462,10.9783286 140.123434,8.08072106 136.586509,8.08072106 C136.407396,8.08039262 136.228711,8.08924155 136.050018,8.10398724 Z" id="Page-1"></path>
                </g>
            </g>
        </g>
    </g>
</svg>