<?xml version="1.0" encoding="UTF-8"?>
<svg width="21px" height="38px" viewBox="0 0 21 38" version="1.1" xmlns="http://www.w3.org/2000/svg" xmlns:xlink="http://www.w3.org/1999/xlink">
    <!-- Generator: Sketch 51.1 (57501) - http://www.bohemiancoding.com/sketch -->
    <title>Shape</title>
    <desc>Created with Sketch.</desc>
    <defs></defs>
    <g id="HOMEPAGE" stroke="none" stroke-width="1" fill="none" fill-rule="evenodd">
        <g transform="translate(-473.000000, -6444.000000)" fill="#EC6767" fill-rule="nonzero" id="Footer">
            <g transform="translate(2.000000, 6088.000000)">
                <path d="M491.201278,356.341111 L486.353778,356.333333 C480.907778,356.333333 477.388333,359.944167 477.388333,365.532889 L477.388333,369.7745 L472.514389,369.7745 C472.093222,369.7745 471.752167,370.115944 471.752167,370.537111 L471.752167,376.682722 C471.752167,377.103889 472.093611,377.444944 472.514389,377.444944 L477.388333,377.444944 L477.388333,392.952278 C477.388333,393.373444 477.729389,393.7145 478.150556,393.7145 L484.509667,393.7145 C484.930833,393.7145 485.271889,393.373056 485.271889,392.952278 L485.271889,377.444944 L490.970667,377.444944 C491.391833,377.444944 491.732889,377.103889 491.732889,376.682722 L491.735222,370.537111 C491.735222,370.334889 491.654722,370.141222 491.512,369.998111 C491.369278,369.855 491.174833,369.7745 490.972611,369.7745 L485.271889,369.7745 L485.271889,366.178833 C485.271889,364.450611 485.683722,363.573278 487.935,363.573278 L491.2005,363.572111 C491.621278,363.572111 491.962333,363.230667 491.962333,362.809889 L491.962333,357.103333 C491.962333,356.682944 491.621667,356.341889 491.201278,356.341111 Z" id="Shape"></path>
            </g>
        </g>
    </g>
</svg>