
<svg width="35px" height="25px" viewBox="0 0 35 25" version="1.1" xmlns="http://www.w3.org/2000/svg" xmlns:xlink="http://www.w3.org/1999/xlink">
    <!-- Generator: Sketch 51.1 (57501) - http://www.bohemiancoding.com/sketch -->
    <desc>Created with Sketch.</desc>
    <defs>
        <polygon id="path-1" points="0.000114754098 0.279360465 34.852082 0.279360465 34.852082 25 0.000114754098 25"></polygon>
    </defs>
    <g id="HOMEPAGE" stroke="none" stroke-width="1" fill="none" fill-rule="evenodd">
        <g transform="translate(-536.000000, -6451.000000)" id="Footer">
            <g transform="translate(2.000000, 6088.000000)">
                <g id="Group-3" transform="translate(534.000000, 363.000000)">
                    <mask id="mask-2" fill="white">
                        <use xlink:href="#path-1"></use>
                    </mask>
                    <g id="Clip-2"></g>
                    <path d="M34.1239672,4.13936047 C33.7231885,2.61988372 32.542082,1.42337209 31.0425328,1.01726744 C28.324582,0.279186047 17.4260984,0.279186047 17.4260984,0.279186047 C17.4260984,0.279186047 6.52761475,0.279186047 3.80966393,1.01726744 C2.31011475,1.42337209 1.1290082,2.61988372 0.728229508,4.13936047 C0.000114754098,6.89343023 0.000114754098,12.6396512 0.000114754098,12.6396512 C0.000114754098,12.6396512 0.000114754098,18.3858721 0.728229508,21.1396512 C1.1290082,22.6591279 2.31011475,23.8559302 3.80966393,24.2620349 C6.52761475,25.0001163 17.4260984,25.0001163 17.4260984,25.0001163 C17.4260984,25.0001163 28.324582,25.0001163 31.0425328,24.2620349 C32.542082,23.8559302 33.7231885,22.6591279 34.1239672,21.1396512 C34.852082,18.3858721 34.852082,12.6396512 34.852082,12.6396512 C34.852082,12.6396512 34.852082,6.89343023 34.1239672,4.13936047" id="Fill-1" fill="#EC6767" mask="url(#mask-2)"></path>
                </g>
                <polygon id="Fill-4" fill="#FFFFFF" points="548 380.857143 548 370.142857 556.75 375.5"></polygon>
            </g>
        </g>
    </g>
</svg>