<?xml version="1.0" encoding="UTF-8"?>
<svg width="18px" height="18px" viewBox="0 0 18 18" version="1.1" xmlns="http://www.w3.org/2000/svg" xmlns:xlink="http://www.w3.org/1999/xlink">
    <!-- Generator: Sketch 51.1 (57501) - http://www.bohemiancoding.com/sketch -->
    <title>Shape</title>
    <desc>Created with Sketch.</desc>
    <defs></defs>
    <g id="HOMEPAGE" stroke="none" stroke-width="1" fill="none" fill-rule="evenodd">
        <g id="MENU-Open" transform="translate(-1051.000000, -704.000000)" fill="#FFFFFF" fill-rule="nonzero">
            <g id="Menu-expanded-2" transform="translate(1023.000000, 156.000000)">
                <g id="Social-Icons" transform="translate(21.000000, 541.000000)">
                    <g id="Group-17">
                        <path d="M9.7233277,7.55555556 L22.2768457,7.55555556 C23.469025,7.55555556 24.4444444,8.43820176 24.4444444,9.72315429 L24.4444444,22.2770191 C24.4444444,23.5619716 23.469025,24.4446179 22.2768457,24.4446179 L9.7233277,24.4446179 C8.53080158,24.4446179 7.55555556,23.5619716 7.55555556,22.2770191 L7.55555556,9.72315429 C7.55555556,8.43820176 8.53080158,7.55555556 9.7233277,7.55555556 Z M19.8584992,9.43200243 C19.4402393,9.43200243 19.0984523,9.7739628 19.0984523,10.1923961 L19.0984523,12.012312 C19.0984523,12.4305718 19.4402393,12.7727056 19.8584992,12.7727056 L21.7673733,12.7727056 C22.1856332,12.7727056 22.5277669,12.4305718 22.5277669,12.012312 L22.5277669,10.1923961 C22.5277669,9.7739628 22.1856332,9.43200243 21.7673733,9.43200243 L19.8584992,9.43200243 Z M22.5357437,14.6978801 L21.0492912,14.6978801 C21.189925,15.1570642 21.2660511,15.6434734 21.2660511,16.1467031 C21.2660511,18.955911 18.9153336,21.2331036 16.0161269,21.2331036 C13.1170937,21.2331036 10.766723,18.955911 10.766723,16.1467031 C10.766723,15.6431265 10.8426757,15.1568908 10.9834829,14.6978801 L9.43234924,14.6978801 L9.43234924,21.8320545 C9.43234924,22.2012399 9.7344258,22.5034898 10.1037846,22.5034898 L21.8646551,22.5034898 C22.234014,22.5034898 22.5360905,22.2014133 22.5360905,21.8320545 L22.5360905,14.6978801 L22.5357437,14.6978801 Z M16.0159535,12.676811 C14.1428014,12.676811 12.624095,14.148177 12.624095,15.9634109 C12.624095,17.7786448 14.1428014,19.2500108 16.0159535,19.2500108 C17.8892791,19.2500108 19.4081588,17.7786448 19.4081588,15.9634109 C19.4081588,14.148177 17.8894525,12.676811 16.0159535,12.676811 Z" id="Shape"></path>
                    </g>
                </g>
            </g>
        </g>
    </g>
</svg>