<?xml version="1.0" encoding="UTF-8"?>
<svg width="30px" height="30px" viewBox="0 0 30 30" version="1.1" xmlns="http://www.w3.org/2000/svg" xmlns:xlink="http://www.w3.org/1999/xlink">
    <!-- Generator: Sketch 51.1 (57501) - http://www.bohemiancoding.com/sketch -->
    <title>Shape</title>
    <desc>Created with Sketch.</desc>
    <defs></defs>
    <g id="HOMEPAGE" stroke="none" stroke-width="1" fill="none" fill-rule="evenodd">
        <g transform="translate(-266.000000, -6448.000000)" fill="#EC6767" fill-rule="nonzero" id="Footer">
            <g transform="translate(2.000000, 6088.000000)">
                <path d="M268.015823,360.222222 L289.98448,360.222222 C292.070794,360.222222 293.777778,361.766853 293.777778,364.01552 L293.777778,385.984783 C293.777778,388.23345 292.070794,389.778081 289.98448,389.778081 L268.015823,389.778081 C265.928903,389.778081 264.222222,388.23345 264.222222,385.984783 L264.222222,364.01552 C264.222222,361.766853 265.928903,360.222222 268.015823,360.222222 Z M285.752374,363.506004 C285.020419,363.506004 284.422292,364.104435 284.422292,364.836693 L284.422292,368.021546 C284.422292,368.753501 285.020419,369.352235 285.752374,369.352235 L289.092903,369.352235 C289.824858,369.352235 290.423592,368.753501 290.423592,368.021546 L290.423592,364.836693 C290.423592,364.104435 289.824858,363.506004 289.092903,363.506004 L285.752374,363.506004 Z M290.437551,372.72129 L287.83626,372.72129 C288.082369,373.524862 288.215589,374.376078 288.215589,375.25673 C288.215589,380.172844 284.101834,384.157931 279.028222,384.157931 C273.954914,384.157931 269.841765,380.172844 269.841765,375.25673 C269.841765,374.375471 269.974682,373.524559 270.221095,372.72129 L267.506611,372.72129 L267.506611,385.206095 C267.506611,385.85217 268.035245,386.381107 268.681623,386.381107 L289.263146,386.381107 C289.909524,386.381107 290.438158,385.852473 290.438158,385.206095 L290.438158,372.72129 L290.437551,372.72129 Z M279.027919,369.184419 C275.749902,369.184419 273.092166,371.75931 273.092166,374.935969 C273.092166,378.112628 275.749902,380.687519 279.027919,380.687519 C282.306238,380.687519 284.964278,378.112628 284.964278,374.935969 C284.964278,371.75931 282.306542,369.184419 279.027919,369.184419 Z" id="Shape"></path>
            </g>
        </g>
    </g>
</svg>