
<svg width="20px" height="14px" viewBox="0 0 20 14" version="1.1" xmlns="http://www.w3.org/2000/svg" xmlns:xlink="http://www.w3.org/1999/xlink">
    <!-- Generator: Sketch 51.1 (57501) - http://www.bohemiancoding.com/sketch -->
    <desc>Created with Sketch.</desc>
    <defs>
        <polygon id="path-1" points="6.55737705e-05 0.15644186 19.9154754 0.15644186 19.9154754 14 6.55737705e-05 14"></polygon>
    </defs>
    <g id="HOMEPAGE" stroke="none" stroke-width="1" fill="none" fill-rule="evenodd">
        <g id="MENU-Open" transform="translate(-1204.000000, -706.000000)">
            <g id="Menu-expanded-2" transform="translate(1023.000000, 156.000000)">
                <g id="Social-Icons" transform="translate(21.000000, 541.000000)">
                    <g id="Group-14-Copy" transform="translate(154.000000, 0.000000)">
                        <g id="Page-1" transform="translate(6.000000, 9.000000)">
                            <g id="Group-3">
                                <mask id="mask-2" fill="white">
                                    <use xlink:href="#path-1"></use>
                                </mask>
                                <g id="Clip-2"></g>
                                <path d="M19.4994098,2.31804186 C19.2703934,1.46713488 18.5954754,0.797088372 17.7385902,0.569669767 C16.1854754,0.156344186 9.95777049,0.156344186 9.95777049,0.156344186 C9.95777049,0.156344186 3.73006557,0.156344186 2.17695082,0.569669767 C1.32006557,0.797088372 0.645147541,1.46713488 0.416131148,2.31804186 C6.55737705e-05,3.86032093 6.55737705e-05,7.07820465 6.55737705e-05,7.07820465 C6.55737705e-05,7.07820465 6.55737705e-05,10.2960884 0.416131148,11.8382047 C0.645147541,12.6891116 1.32006557,13.3593209 2.17695082,13.5867395 C3.73006557,14.0000651 9.95777049,14.0000651 9.95777049,14.0000651 C9.95777049,14.0000651 16.1854754,14.0000651 17.7385902,13.5867395 C18.5954754,13.3593209 19.2703934,12.6891116 19.4994098,11.8382047 C19.9154754,10.2960884 19.9154754,7.07820465 19.9154754,7.07820465 C19.9154754,7.07820465 19.9154754,3.86032093 19.4994098,2.31804186" id="Fill-1" fill="#FFFFFF" mask="url(#mask-2)"></path>
                            </g>
                            <polygon id="Fill-4" fill="#EC6767" points="8 10 8 4 13 7"></polygon>
                        </g>
                    </g>
                </g>
            </g>
        </g>
    </g>
</svg>