<?xml version="1.0" encoding="UTF-8"?>
<svg width="36px" height="29px" viewBox="0 0 36 29" version="1.1" xmlns="http://www.w3.org/2000/svg" xmlns:xlink="http://www.w3.org/1999/xlink">
    <!-- Generator: Sketch 51.1 (57501) - http://www.bohemiancoding.com/sketch -->
    <title>Shape</title>
    <desc>Created with Sketch.</desc>
    <defs></defs>
    <g id="HOMEPAGE" stroke="none" stroke-width="1" fill="none" fill-rule="evenodd">
        <g transform="translate(-332.000000, -6450.000000)" fill="#EC6767" fill-rule="nonzero" id="Footer">
            <g transform="translate(2.000000, 6088.000000)">
                <path d="M365.666667,365.525519 C364.37847,366.095502 362.996254,366.482058 361.54398,366.654635 C363.02685,365.767937 364.16195,364.36151 364.699933,362.690793 C363.308967,363.511932 361.773597,364.108185 360.13763,364.431409 C358.827587,363.03589 356.964177,362.166667 354.897344,362.166667 C350.932157,362.166667 347.717128,365.377041 347.717128,369.334316 C347.717128,369.895562 347.780551,370.44373 347.903051,370.967914 C341.936685,370.668674 336.646129,367.814303 333.105233,363.476983 C332.486269,364.53403 332.134153,365.76571 332.134153,367.080481 C332.134153,369.567997 333.402676,371.762841 335.327336,373.046945 C334.150659,373.007655 333.043983,372.684431 332.075133,372.14717 L332.075133,372.236713 C332.075133,375.709151 334.55093,378.607208 337.833729,379.266792 C337.232266,379.428404 336.598033,379.517948 335.941896,379.517948 C335.478259,379.517948 335.029893,379.472091 334.590276,379.384718 C335.504452,382.234748 338.155249,384.307269 341.295932,384.36409 C338.839809,386.285964 335.742876,387.428157 332.379153,387.428157 C331.799593,387.428157 331.228726,387.393208 330.666667,387.329876 C333.844523,389.367505 337.617266,390.555556 341.672126,390.555556 C354.879958,390.555556 362.099578,379.631533 362.099578,370.157682 L362.075501,369.229525 C363.48614,368.224844 364.70651,366.962555 365.666667,365.525519 Z" id="Shape"></path>
            </g>
        </g>
    </g>
</svg>