<svg height="38" viewBox="0 0 21 38" width="21" xmlns="http://www.w3.org/2000/svg"><path d="m456.201278 356.341111-4.8475-.007778c-5.446 0-8.965445 3.610834-8.965445 9.199556v4.241611h-4.873944c-.421167 0-.762222.341444-.762222.762611v6.145611c0 .421167.341444.762222.762222.762222h4.873944v15.507334c0 .421166.341056.762222.762223.762222h6.359111c.421166 0 .762222-.341444.762222-.762222v-15.507334h5.698778c.421166 0 .762222-.341055.762222-.762222l.002333-6.145611c0-.202222-.0805-.395889-.223222-.539s-.337167-.223611-.539389-.223611h-5.700722v-3.595667c0-1.728222.411833-2.605555 2.663111-2.605555l3.2655-.001167c.420778 0 .761833-.341444.761833-.762222v-5.706556c0-.420389-.340666-.761444-.761055-.762222z" fill="#347c67" transform="translate(-436 -356)"/></svg>